PathFileType	4	(X/Y/Z)	Kaydara																																																																																																																									
DataRate	CameraRate	NumFrames	NumMarkers	Units	OrigDataRate	OrigDataStartFrame	OrigNumFrames																																																																																																																					
30	30	9	41	mm	30	65	133																																																																																																																					
Frame#	Time	PAIB_LFHD			PAIB_RFHD			PAIB_LBHD			PAIB_RBHD			PAIB_LFTShould			PAIB_RFTShould			PAIB_LRRShould			PAIB_RRRShould			PAIB_T10			PAIB_STRN			PAIB_TRUN			PAIB_LSHO			PAIB_LUPA			PAIB_LELB			PAIB_LFRM			PAIB_LWRA			PAIB_LWRB			PAIB_LFIN			PAIB_RSHO			PAIB_RUPA			PAIB_RELB			PAIB_RFRM			PAIB_RWRA			PAIB_RWRB			PAIB_RFIN			PAIB_LFWT			PAIB_RFWT			PAIB_LBWT			PAIB_RBWT			PAIB_LTHI			PAIB_LKNE			PAIB_LSHN			PAIB_LANK			PAIB_LHEE			PAIB_LTOE			PAIB_RTHI			PAIB_RKNE			PAIB_RSHN			PAIB_RANK			PAIB_RHEE			PAIB_RTOE		
		X1	Y1	Z1	X2	Y2	Z2	X3	Y3	Z3	X4	Y4	Z4	X5	Y5	Z5	X6	Y6	Z6	X7	Y7	Z7	X8	Y8	Z8	X9	Y9	Z9	X10	Y10	Z10	X11	Y11	Z11	X12	Y12	Z12	X13	Y13	Z13	X14	Y14	Z14	X15	Y15	Z15	X16	Y16	Z16	X17	Y17	Z17	X18	Y18	Z18	X19	Y19	Z19	X20	Y20	Z20	X21	Y21	Z21	X22	Y22	Z22	X23	Y23	Z23	X24	Y24	Z24	X25	Y25	Z25	X26	Y26	Z26	X27	Y27	Z27	X28	Y28	Z28	X29	Y29	Z29	X30	Y30	Z30	X31	Y31	Z31	X32	Y32	Z32	X33	Y33	Z33	X34	Y34	Z34	X35	Y35	Z35	X36	Y36	Z36	X37	Y37	Z37	X38	Y38	Z38	X39	Y39	Z39	X40	Y40	Z40	X41	Y41	Z41
																																																																																																																												
50	2.133	271.35029	1602.09717	-1489.86343	87.52882	1600.27542	-1510.67886	293.51755	1544.33502	-1604.88876	90.85548	1556.15494	-1617.72812	233.71485	1313.98941	-1494.9855	112.55157	1312.34329	-1519.4841	268.00301	1420.08575	-1612.3822	115.56706	1416.86142	-1631.7421	212.67044	1290.05661	-1744.88678	177.84824	1239.05586	-1489.82361	179.59784	1135.64171	-1499.54285	371.09394	1350.23666	-1539.44458	462.05051	1142.8968	-1572.25235	499.48742	1071.86378	-1609.4664	479.319	970.43396	-1531.19659	371.63136	906.49796	-1439.8378	425.01755	858.45207	-1479.25522	405.86861	849.431	-1407.2789	-4.32245	1339.5697	-1600.46875	-56.18438	1226.32011	-1741.45035	-84.69131	1135.57945	-1808.76877	-121.85908	1006.55891	-1848.22983	-103.82676	860.327	-1797.8299	-154.86076	883.38104	-1861.96869	-168.88041	821.4695	-1821.83472	318.38394	880.62904	-1604.47327	86.23127	911.3797	-1602.84561	249.38702	963.54095	-1813.34473	105.36734	960.96794	-1815.13794	287.89001	737.09236	-1875.79285	328.07793	475.09384	-1899.61273	298.31244	301.23857	-1979.10858	298.60113	173.55078	-2142.89841	245.18148	188.11512	-2190.81207	260.92604	74.277	-2010.46127	38.64618	659.24561	-1685.22232	41.81324	494.03709	-1477.17331	103.32645	310.70791	-1435.61462	76.27581	99.55734	-1489.58694	142.54313	100.09474	-1542.44675	95.85876	109.15577	-1324.1275
51	2.167	258.37006	1603.50266	-1443.15109	74.62314	1601.66168	-1464.80545	280.89924	1545.26093	-1557.74933	78.33858	1556.80481	-1571.33942	223.23923	1314.78699	-1445.91125	102.83559	1309.54773	-1472.64755	257.03518	1423.02979	-1563.93265	104.10581	1414.86542	-1584.31427	204.99527	1289.96277	-1695.33585	168.64529	1238.20534	-1441.90231	172.14125	1134.85756	-1451.23123	360.55779	1354.58694	-1488.77792	452.97367	1148.36006	-1529.64935	491.24554	1079.50478	-1571.04095	475.77888	972.10358	-1499.5755	372.52956	899.30641	-1409.83551	425.38532	855.31181	-1454.79675	410.23567	840.93071	-1383.09326	-13.92773	1334.20898	-1554.09531	-63.65346	1220.27542	-1695.41199	-90.81926	1128.76266	-1761.97266	-126.32578	998.71056	-1800.0174	-107.79009	853.72787	-1747.12463	-157.95375	875.24475	-1812.53433	-172.72181	814.41429	-1771.07071	316.78652	879.55078	-1560.14297	84.92414	911.33797	-1557.20032	246.78661	965.77423	-1768.0722	102.07033	966.06232	-1771.09116	285.77238	736.25824	-1831.08917	326.52584	473.64754	-1853.09952	298.69614	305.43743	-1946.30676	302.96833	193.20848	-2121.22559	250.26136	213.31987	-2167.94891	260.94631	74.39711	-2009.02145	39.67227	658.8475	-1647.89047	42.0198	486.60236	-1445.56915	104.09581	304.45709	-1415.09628	80.24978	98.79268	-1496.59622	145.75175	103.1312	-1536.81824	83.78092	94.67655	-1322.08435
52	2.2	245.19117	1612.07306	-1397.26959	61.55078	1608.73001	-1419.17938	268.46176	1553.17001	-1511.26221	65.87875	1563.1218	-1525.65079	214.56387	1323.17398	-1397.9631	95.32846	1315.22568	-1425.69748	247.00253	1432.39685	-1515.88348	93.89706	1419.95255	-1537.17072	198.64666	1297.97867	-1647.8598	161.25824	1245.20042	-1393.9859	166.49717	1141.91483	-1402.52029	351.49021	1365.54214	-1439.57748	443.29765	1159.562	-1490.80536	480.3614	1092.47887	-1536.48651	472.72331	978.8063	-1474.40475	377.29443	893.87589	-1386.61591	428.60466	856.31561	-1438.72879	419.74884	834.97787	-1368.20404	-21.79811	1334.93927	-1505.44647	-71.79575	1215.18433	-1641.28571	-97.83615	1121.22292	-1704.89822	-131.36518	990.28778	-1739.9234	-109.66104	846.68831	-1684.73312	-161.15177	866.1306	-1749.81125	-174.07925	805.82161	-1707.18994	311.62729	886.89751	-1512.29019	79.40686	919.53758	-1511.93268	247.18287	973.56232	-1720.29572	102.87798	975.49644	-1724.84772	285.12951	733.86124	-1780.24185	327.01584	468.55766	-1786.49597	301.00073	309.16107	-1896.74286	308.40612	218.72135	-2083.30124	255.21572	245.81127	-2126.52664	260.07654	74.81641	-2007.06497	38.25352	666.10817	-1614.1481	38.97793	486.40518	-1420.81802	102.1497	300.23724	-1397.43805	77.189	102.1643	-1483.16925	144.84236	105.50083	-1530.8699	83.67386	84.23053	-1315.10086
53	2.233	233.23231	1626.22269	-1352.33917	49.85527	1619.07684	-1375.01968	258.01382	1569.15573	-1466.80344	55.33752	1574.72641	-1481.88873	209.14198	1338.07846	-1354.21402	90.03003	1327.40036	-1380.71594	239.02443	1446.42624	-1473.88458	86.05624	1430.49759	-1493.09845	191.90292	1309.543	-1603.77853	157.45971	1259.02046	-1348.65356	163.36569	1155.55542	-1355.74326	345.13485	1382.21237	-1396.9986	434.33388	1175.75317	-1453.79486	470.14809	1109.84795	-1503.90198	470.79792	990.79468	-1452.14813	385.10155	891.63109	-1370.07919	434.53255	863.02834	-1427.64069	431.81175	834.14101	-1360.26123	-26.77039	1342.69531	-1457.05978	-79.08548	1213.73398	-1582.99225	-104.08792	1116.31821	-1641.53717	-135.90801	983.45718	-1669.02435	-108.29656	842.63741	-1609.68918	-163.52859	858.67889	-1672.34711	-171.81604	798.88138	-1627.34955	303.9394	898.61656	-1463.86078	70.99177	930.81299	-1467.31369	246.90634	983.22304	-1673.22876	102.71133	986.91788	-1679.60388	286.53452	724.35677	-1721.29288	327.79385	459.00871	-1699.39438	302.30162	313.99464	-1828.22174	310.86283	250.19861	-2023.93234	258.90589	285.89706	-2062.58118	260.63951	83.8055	-1979.32709	37.80841	673.82164	-1585.87906	32.66459	480.09876	-1405.29266	98.45403	296.17762	-1387.0282	75.53732	95.7433	-1478.00369	143.67102	106.90368	-1528.88672	83.12526	81.36721	-1314.28329
54	2.267	224.57113	1642.76932	-1309.49219	41.1611	1632.63702	-1332.28119	250.23876	1589.104	-1425.22354	47.55528	1591.19583	-1440.31586	208.74432	1356.16791	-1315.40192	89.32768	1343.76205	-1338.19153	232.92992	1462.56027	-1438.05161	80.08521	1444.30145	-1452.35992	183.75051	1322.49985	-1563.78769	158.10429	1276.61766	-1306.32278	165.369	1173.07838	-1311.76407	342.67231	1401.35468	-1363.2402	428.52875	1193.73627	-1420.09247	462.8672	1127.06573	-1473.62106	472.46552	1007.38586	-1430.71426	396.01624	895.82588	-1354.92554	446.26396	876.33598	-1415.02014	444.87125	839.32281	-1352.07169	-29.30666	1354.81506	-1410.06485	-84.80505	1216.77658	-1524.00803	-110.11392	1115.3788	-1575.31677	-139.78463	979.69704	-1590.31601	-104.20197	844.65202	-1523.18268	-164.35135	854.59213	-1582.04529	-166.62712	797.85133	-1532.57309	297.6222	913.11722	-1415.98648	63.57903	942.38472	-1421.85043	245.48042	991.5387	-1627.60605	101.40697	999.46579	-1633.94623	288.45888	712.85881	-1653.88367	327.72346	453.7851	-1598.78891	298.88842	322.43938	-1738.48175	309.37067	282.05555	-1940.48965	258.47548	324.31152	-1973.8176	267.97501	103.32401	-1925.53726	35.29551	684.14406	-1558.86002	25.94933	477.28199	-1394.98184	91.54618	292.69331	-1380.56458	75.22128	95.42211	-1481.51947	143.25714	108.23025	-1527.37137	83.12251	78.5088	-1312.60437
55	2.3	220.75008	1659.53125	-1269.40659	36.89904	1648.45734	-1291.00769	245.70538	1610.23834	-1387.11426	42.91808	1610.91171	-1400.47089	210.31633	1376.19476	-1279.75403	90.2906	1362.25067	-1298.38623	228.49369	1477.49405	-1406.50864	76.04158	1458.65097	-1415.65887	175.72983	1333.34885	-1526.07513	160.87635	1296.80649	-1265.73318	168.95638	1193.20595	-1268.02528	342.98225	1420.36758	-1335.64301	427.79564	1211.89003	-1393.909	459.03133	1145.50659	-1448.84125	478.45131	1026.81374	-1410.94757	411.46923	905.87296	-1339.37027	462.98244	893.90686	-1400.22476	460.60436	850.57449	-1340.07187	-30.19689	1369.80804	-1366.2178	-89.9054	1223.56117	-1466.29486	-116.54808	1117.68326	-1507.6004	-143.39088	980.2327	-1507.03461	-99.28885	854.74915	-1427.80243	-162.87336	855.93727	-1483.72849	-160.28435	805.77789	-1427.29736	291.76016	929.29977	-1366.78497	56.92976	952.64481	-1374.83032	241.88637	999.93927	-1580.8577	98.27485	1011.6732	-1586.64978	285.74383	709.09431	-1580.86243	330.7082	457.98378	-1490.87128	297.13169	333.68904	-1637.16141	302.59884	305.91879	-1842.38708	247.97869	346.44424	-1871.85349	279.46156	127.43491	-1828.36258	32.48009	695.98366	-1532.03934	21.16408	475.82958	-1390.7019	86.8101	290.89844	-1377.65961	75.19122	94.62518	-1478.70346	144.17894	109.60247	-1525.55725	82.41133	73.99624	-1310.9166
56	2.333	221.17033	1674.2424	-1231.04576	36.70777	1664.3367	-1250.54558	244.2944	1629.03824	-1350.76767	41.31057	1630.70038	-1361.40976	212.07438	1396.0524	-1245.80002	91.88352	1381.5686	-1260.0132	225.02888	1489.88892	-1376.63315	73.13426	1471.67221	-1381.18134	168.63688	1341.28571	-1488.77274	163.01729	1317.49817	-1226.381	170.88673	1213.75481	-1224.08905	343.95432	1437.03979	-1310.89447	429.5919	1229.51721	-1371.12122	456.8951	1162.59468	-1427.25586	485.96386	1045.58365	-1393.23273	431.11362	918.65616	-1321.58463	479.89155	911.72234	-1385.29633	481.74561	865.80269	-1326.08932	-31.00738	1385.36743	-1325.05264	-95.08473	1231.8911	-1409.80804	-123.5199	1122.4868	-1439.98062	-145.99136	984.67949	-1420.97168	-92.91403	871.88309	-1328.91998	-159.44045	863.78716	-1380.77072	-153.29542	823.06679	-1317.62375	285.7967	944.97162	-1318.15109	50.21025	960.11826	-1327.48474	237.33309	1008.56407	-1533.32626	93.87977	1021.12534	-1538.74298	280.70204	713.04428	-1508.82446	336.08574	472.45712	-1388.2811	299.80934	343.73459	-1527.25937	294.84264	310.38786	-1732.12997	236.34453	345.89104	-1760.48523	284.17406	135.4355	-1701.39633	32.39718	706.83022	-1506.32263	21.90289	475.7827	-1385.66772	86.30927	290.6172	-1375.19287	76.89489	95.89006	-1479.33075	146.01066	111.43882	-1524.0419	81.63359	72.43065	-1310.18753
57	2.367	224.77669	1683.535	-1193.452	39.57554	1676.97708	-1210.08369	245.28227	1641.66779	-1314.92355	42.16691	1646.63177	-1322.20459	212.98897	1411.16669	-1212.49489	92.13383	1397.03064	-1222.12936	221.63429	1498.04886	-1346.6684	70.50504	1481.46973	-1346.57578	161.25349	1346.20697	-1451.69373	164.22138	1334.2012	-1187.87033	171.36559	1230.5484	-1181.57196	343.85212	1448.88046	-1286.05118	431.54514	1243.15079	-1349.62189	454.82193	1176.0421	-1406.32538	493.48263	1060.94818	-1377.52319	454.59461	931.05019	-1299.6727	494.45694	926.52054	-1369.43634	507.58545	881.57021	-1311.082	-31.83479	1398.86749	-1284.19159	-99.80765	1239.59915	-1352.82852	-130.07976	1127.74544	-1371.40015	-147.68516	992.31804	-1333.51547	-86.5247	895.03967	-1228.88535	-154.47263	877.68593	-1275.89058	-145.63868	847.69432	-1207.97066	281.34686	957.5013	-1270.64034	44.66581	963.87611	-1279.01649	232.31047	1014.58061	-1486.33102	89.36221	1026.78001	-1490.09262	277.02347	718.11745	-1441.56219	339.8082	491.58531	-1291.25259	302.05729	348.68458	-1413.7558	288.79471	293.76507	-1613.82278	229.26855	324.24282	-1645.37445	279.76376	129.10952	-1554.76471	33.82684	716.60187	-1477.66037	26.95999	476.98555	-1378.67294	89.45742	291.77761	-1370.43213	80.099	98.36884	-1478.52692	149.93873	113.99651	-1521.34521	81.45851	71.76463	-1309.12628
58	2.4	230.28816	1686.05209	-1156.04088	44.52408	1684.08844	-1169.28757	247.64853	1646.9928	-1278.93936	44.57505	1656.47186	-1282.35855	214.10549	1419.22836	-1178.99948	92.89209	1406.61041	-1183.57361	218.15081	1501.02448	-1315.40253	67.95713	1486.55609	-1310.39841	153.05837	1346.68533	-1413.94012	165.52177	1343.81592	-1149.62601	171.78179	1240.26649	-1140.03799	342.50587	1454.40216	-1260.02075	431.81225	1251.84586	-1326.47369	452.36378	1184.36241	-1383.54584	499.94171	1071.94229	-1358.99582	480.20241	942.96425	-1273.67836	507.69524	937.0311	-1349.57855	533.95763	895.72426	-1293.73123	-32.36059	1408.48206	-1241.06491	-104.19025	1245.68222	-1294.50516	-136.5936	1133.36411	-1302.49069	-148.7166	1002.73422	-1245.55344	-79.67256	922.31316	-1131.97487	-148.99544	896.62186	-1172.88864	-137.25271	877.74559	-1101.86951	278.15573	964.37057	-1223.27805	40.89721	962.47253	-1230.43411	228.26277	1015.36896	-1439.45038	85.48331	1027.36351	-1441.26663	278.09347	720.27283	-1377.66815	340.24197	508.31654	-1200.79056	300.96165	346.99867	-1298.99475	283.51675	260.51977	-1487.60406	223.62156	285.02689	-1523.8887	273.98743	114.27796	-1397.44049	34.38878	723.74466	-1445.9436	32.63974	478.39363	-1370.36072	94.26167	293.64029	-1365.34027	84.08926	101.41821	-1476.24847	155.5435	117.10461	-1517.92831	81.34482	71.31149	-1307.37335
